<?xml version="1.0" encoding="utf-8"?>
<!-- Generator: Adobe Illustrator 21.0.0, SVG Export Plug-In . SVG Version: 6.00 Build 0)  -->
<svg version="1.1" id="レイヤー_1" xmlns="http://www.w3.org/2000/svg" xmlns:xlink="http://www.w3.org/1999/xlink" x="0px"
	 y="0px" viewBox="0 0 199.1 16.5" style="enable-background:new 0 0 199.1 16.5;" xml:space="preserve">
<g>
	<path d="M2.2,3.2v1.2H0.8V3.2H2.2z M2.1,5.8C2.1,6.3,2,6.6,2,7.3V11c0,0.6,0,0.9,0.1,1.4H0.9c0.1-0.5,0.1-0.9,0.1-1.4V7.3
		c0-0.6,0-1-0.1-1.4H2.1z"/>
	<path d="M4.4,12.4C4.5,12,4.5,11.6,4.5,11V7.3c0-0.6,0-0.9-0.1-1.4h1.2v0.7c0,0.2,0,0.2,0,0.5C6.2,6.1,6.9,5.7,8,5.7
		c0.9,0,1.6,0.3,2,0.9c0.2,0.4,0.4,0.8,0.4,1.5v3c0,0.6,0,1,0.1,1.4H9.1c0.1-0.5,0.1-0.9,0.1-1.4V8.3c0-1.1-0.5-1.6-1.4-1.6
		c-0.6,0-1.1,0.3-1.6,0.9C5.9,7.9,5.7,8.2,5.6,8.7V11c0,0.5,0,0.9,0.1,1.4H4.4z"/>
	<path d="M13,6.8c-0.4,0-0.7,0-1.1,0.1V5.8c0.3,0,0.6,0.1,1.1,0.1h0.5V5.2c0-0.7,0.1-1.2,0.4-1.5c0.3-0.4,0.9-0.6,1.6-0.6
		c0.5,0,0.9,0.1,1.3,0.2l-0.3,0.9C16.3,4.1,16,4,15.6,4c-0.3,0-0.5,0-0.7,0.2c-0.2,0.2-0.3,0.4-0.3,1.1v0.6h0.6c0.5,0,0.8,0,1.3-0.1
		v1.1c-0.4,0-0.7-0.1-1.3-0.1h-0.6V11c0,0.6,0,1,0.1,1.4h-1.3c0.1-0.4,0.1-0.9,0.1-1.4V6.8H13z"/>
	<path d="M18.1,9.1c0-2.1,1.3-3.5,3.3-3.5c2,0,3.3,1.3,3.3,3.5s-1.3,3.5-3.3,3.5C19.4,12.6,18.1,11.3,18.1,9.1z M19.2,9.1
		c0,1.6,0.8,2.6,2.2,2.6c1.4,0,2.2-1,2.2-2.5c0-1.6-0.8-2.6-2.2-2.6C20.1,6.6,19.2,7.6,19.2,9.1z"/>
	<path d="M26.2,8.3c0.3,0,0.6,0.1,1.1,0.1h1.5c0.5,0,0.8,0,1.1-0.1v1.2c-0.4,0-0.6-0.1-1.1-0.1h-1.5c-0.5,0-0.7,0-1.1,0.1V8.3z"/>
	<path d="M33.3,5.8c-0.1,0.4-0.1,0.8-0.1,1.4v5.7c0,0.8-0.1,1.3-0.5,1.6C32.4,14.8,32,15,31.3,15c-0.9,0-1.4-0.3-2-1l1-0.6
		c0.3,0.5,0.6,0.6,1,0.6c0.3,0,0.5-0.1,0.6-0.3c0.1-0.2,0.1-0.4,0.1-0.9V7.3c0-0.6,0-1-0.1-1.4H33.3z M33.4,3.2v1.2H32V3.2H33.4z"/>
	<path d="M35.7,14.9c0.1-0.5,0.1-0.9,0.1-1.4V7.3c0-0.6,0-1-0.1-1.4h1.1v0.6c0,0.1,0,0.2,0,0.5c0.6-0.8,1.4-1.2,2.4-1.2
		c1.9,0,3.1,1.3,3.1,3.4c0,2.1-1.2,3.4-3,3.4c-1,0-1.8-0.4-2.5-1.2c0,0.3,0,0.5,0,0.8v1.3c0,0.6,0,1,0.1,1.4H35.7z M41.2,9.1
		c0-1.6-0.7-2.5-2.1-2.5c-1.4,0-2.3,1-2.3,2.5c0,0.7,0.3,1.4,0.7,1.8c0.4,0.4,1,0.6,1.6,0.6C40.4,11.6,41.2,10.7,41.2,9.1z"/>
	<path d="M51.6,5c-0.1,0.3-0.2,0.6-0.3,1.1l-0.9,3.2c0,0.1,0,0.2,0,0.3c0,0.2,0.1,0.3,0.4,0.3c0.3,0,0.7-0.2,1-0.4
		c0.7-0.6,1.2-1.5,1.2-2.5c0-2-1.5-3.3-3.6-3.3c-2.5,0-4.4,1.8-4.4,4.2c0,2.3,1.7,3.9,4.1,3.9c0.7,0,1.4-0.1,2-0.3
		c0.4-0.2,0.6-0.3,1.1-0.6l0.5,0.7c-0.6,0.4-0.9,0.5-1.5,0.7c-0.7,0.2-1.4,0.3-2.2,0.3c-2.9,0-4.9-1.9-4.9-4.7C44,5.1,46.2,3,49.3,3
		c2.7,0,4.5,1.6,4.5,4c0,1.4-0.6,2.6-1.7,3.3c-0.4,0.3-1,0.4-1.4,0.4c-0.6,0-0.9-0.3-0.9-0.8c0,0,0-0.1,0-0.1
		c-0.2,0.3-0.4,0.4-0.6,0.6c-0.3,0.2-0.7,0.3-1,0.3c-1,0-1.7-0.8-1.7-2c0-0.9,0.3-1.8,0.8-2.5c0.6-0.8,1.4-1.3,2.2-1.3
		c0.7,0,1.1,0.3,1.2,0.8L50.8,5H51.6z M47.9,6.5c-0.4,0.6-0.6,1.5-0.6,2.2c0,0.8,0.3,1.2,0.9,1.2c0.5,0,1.1-0.4,1.5-1.1
		c0.3-0.6,0.6-1.5,0.6-2.2s-0.3-1-0.8-1C48.8,5.6,48.3,5.9,47.9,6.5z"/>
	<path d="M60.2,11.6c-0.5,0.4-0.7,0.5-1.1,0.7c-0.4,0.2-0.9,0.2-1.3,0.2c-1.3,0-2.2-0.7-2.2-1.9c0-0.9,0.6-1.6,1.6-2
		c0.7-0.2,1.4-0.3,2.9-0.3V7.7c0-0.8-0.5-1.2-1.5-1.2c-0.6,0-1.1,0.2-1.5,0.5c-0.2,0.2-0.2,0.3-0.3,0.6l-1.1-0.2
		c0.2-0.6,0.4-0.9,0.7-1.2c0.5-0.4,1.3-0.7,2.2-0.7c0.9,0,1.6,0.2,2,0.6c0.4,0.3,0.5,0.8,0.5,1.5v3.3c0,0.6,0,0.9,0.1,1.4h-1.1V11.6
		z M60.2,9.2c-1.4,0-2,0.1-2.6,0.3c-0.6,0.2-0.9,0.6-0.9,1.2c0,0.6,0.5,1,1.2,1c0.7,0,1.4-0.3,1.8-0.8c0.3-0.3,0.4-0.6,0.4-1V9.2z"
		/>
	<path d="M64.8,3.2v1.2h-1.3V3.2H64.8z M64.8,5.8c-0.1,0.4-0.1,0.8-0.1,1.4V11c0,0.6,0,0.9,0.1,1.4h-1.3c0.1-0.5,0.1-0.9,0.1-1.4
		V7.3c0-0.6,0-1-0.1-1.4H64.8z"/>
	<path d="M67.1,12.4c0.1-0.5,0.1-0.8,0.1-1.4V7.3c0-0.7,0-1-0.1-1.4h1.2v0.6c0,0,0,0.2,0,0.3c0,0.1,0,0.1,0,0.2
		c0.4-0.8,1.2-1.2,2.2-1.2c0.7,0,1.2,0.2,1.6,0.6c0.2,0.2,0.3,0.3,0.4,0.7c0.6-0.9,1.2-1.2,2.3-1.2c0.8,0,1.4,0.2,1.8,0.7
		c0.3,0.4,0.5,0.9,0.5,1.6v3c0,0.6,0,1,0.1,1.4h-1.3c0.1-0.5,0.1-0.8,0.1-1.4V8.2c0-0.7-0.1-1.1-0.5-1.4c-0.2-0.1-0.5-0.2-0.8-0.2
		c-0.6,0-1.1,0.3-1.5,0.8c-0.2,0.3-0.4,0.9-0.4,1.2V11c0,0.6,0,1,0.1,1.4h-1.3c0.1-0.4,0.1-0.8,0.1-1.4V8.2c0-1-0.4-1.6-1.3-1.6
		c-0.5,0-1.1,0.3-1.5,0.9c-0.2,0.3-0.4,0.9-0.4,1.1V11c0,0.6,0,0.9,0.1,1.4H67.1z"/>
	<path d="M79.1,12.4c0.1-0.5,0.1-0.8,0.1-1.4V7.3c0-0.6,0-0.9-0.1-1.4h1.2v0.7c0,0.2,0,0.2,0,0.5c0.6-0.9,1.4-1.3,2.4-1.3
		c0.9,0,1.6,0.3,2,0.9C84.9,7,85,7.5,85,8.1v3c0,0.6,0,1,0.1,1.4h-1.3c0.1-0.5,0.1-0.9,0.1-1.4V8.3c0-1.1-0.5-1.6-1.4-1.6
		c-0.6,0-1.1,0.3-1.6,0.9c-0.3,0.4-0.5,0.7-0.6,1.2V11c0,0.5,0,0.9,0.1,1.4H79.1z"/>
	<path d="M88.1,9.4c0,0.8,0.2,1.2,0.5,1.6c0.4,0.5,0.9,0.8,1.6,0.8c0.6,0,1.2-0.2,1.5-0.7c0.2-0.2,0.3-0.3,0.4-0.7l1,0.4
		c-0.2,0.5-0.4,0.7-0.7,1c-0.6,0.6-1.3,0.9-2.3,0.9c-1.9,0-3.2-1.3-3.2-3.5c0-2.1,1.2-3.5,3.1-3.5c1.6,0,2.8,1,3,2.7
		c0,0.1,0,0.4,0.1,1H88.1z M92.1,8.5c-0.1-0.6-0.3-1-0.6-1.4c-0.4-0.3-0.8-0.5-1.4-0.5c-0.7,0-1.3,0.3-1.7,1
		c-0.2,0.3-0.2,0.5-0.3,0.9H92.1z"/>
	<path d="M99.4,12.4c-0.2-0.4-0.3-0.5-0.6-0.9l-1.2-1.8l-1.3,1.8c-0.2,0.3-0.3,0.4-0.5,0.8h-1.4c0.2-0.3,0.6-0.8,0.8-1.1L97,9
		l-1.6-2.2c-0.1-0.1-0.3-0.3-0.7-1h1.4c0.1,0.3,0.3,0.5,0.5,0.8l1.1,1.6l1.1-1.6c0.2-0.3,0.4-0.6,0.5-0.8h1.4
		c-0.1,0.1-0.1,0.1-0.3,0.4c-0.1,0.1-0.3,0.5-0.5,0.6L98.3,9l1.6,2.3c0.1,0.2,0.4,0.6,0.9,1.2H99.4z"/>
	<path d="M104.5,4.1c0,0.4-0.1,0.9-0.1,1.4v0.4h0.6c0.6,0,0.8,0,1.2-0.1v1.1c-0.4-0.1-0.7-0.1-1.2-0.1h-0.6v4c0,0.3,0,0.5,0.2,0.6
		c0.1,0.1,0.3,0.2,0.6,0.2c0.3,0,0.6-0.1,0.9-0.3l0.3,1c-0.5,0.2-0.9,0.3-1.4,0.3c-0.6,0-1-0.1-1.3-0.4c-0.3-0.3-0.4-0.6-0.4-1.2
		V6.8h-0.5c-0.4,0-0.7,0-1.1,0.1V5.8c0.3,0.1,0.6,0.1,1.1,0.1h0.5V5.4c0-0.5,0-1-0.1-1.4H104.5z"/>
	<path d="M109.3,11.1v1.4h-1.4v-1.4H109.3z"/>
	<path d="M116.2,7.9c-0.3-0.9-0.9-1.3-1.7-1.3c-1.3,0-2.1,1-2.1,2.6c0,1.5,0.8,2.5,2.1,2.5c0.7,0,1.2-0.3,1.5-0.7
		c0.1-0.2,0.2-0.3,0.3-0.6l1.1,0.3c-0.2,0.5-0.3,0.7-0.5,0.9c-0.5,0.7-1.4,1.1-2.4,1.1c-1.9,0-3.2-1.3-3.2-3.4
		c0-2.1,1.2-3.5,3.2-3.5c1,0,1.9,0.4,2.4,1.2c0.2,0.3,0.3,0.5,0.4,0.8L116.2,7.9z"/>
	<path d="M118.9,9.1c0-2.1,1.3-3.5,3.3-3.5c2,0,3.3,1.3,3.3,3.5s-1.3,3.5-3.3,3.5C120.2,12.6,118.9,11.3,118.9,9.1z M120,9.1
		c0,1.6,0.8,2.6,2.2,2.6c1.4,0,2.2-1,2.2-2.5c0-1.6-0.8-2.6-2.2-2.6C120.9,6.6,120,7.6,120,9.1z"/>
	<path d="M127.5,12.4c0.1-0.5,0.1-0.8,0.1-1.4V7.3c0-0.7,0-1-0.1-1.4h1.2v0.6c0,0,0,0.2,0,0.3c0,0.1,0,0.1,0,0.2
		c0.4-0.8,1.2-1.2,2.2-1.2c0.7,0,1.2,0.2,1.6,0.6c0.2,0.2,0.3,0.3,0.4,0.7c0.6-0.9,1.2-1.2,2.3-1.2c0.8,0,1.4,0.2,1.8,0.7
		c0.3,0.4,0.5,0.9,0.5,1.6v3c0,0.6,0,1,0.1,1.4H136c0.1-0.5,0.1-0.8,0.1-1.4V8.2c0-0.7-0.1-1.1-0.5-1.4c-0.2-0.1-0.5-0.2-0.8-0.2
		c-0.6,0-1.1,0.3-1.5,0.8c-0.2,0.3-0.4,0.9-0.4,1.2V11c0,0.6,0,1,0.1,1.4h-1.3c0.1-0.4,0.1-0.8,0.1-1.4V8.2c0-1-0.4-1.6-1.3-1.6
		c-0.5,0-1.1,0.3-1.5,0.9c-0.2,0.3-0.4,0.9-0.4,1.1V11c0,0.6,0,0.9,0.1,1.4H127.5z"/>
</g>
</svg>
