<?xml version="1.0" encoding="utf-8"?>
<!-- Generator: Adobe Illustrator 21.0.0, SVG Export Plug-In . SVG Version: 6.00 Build 0)  -->
<svg version="1.1" id="レイヤー_1" xmlns="http://www.w3.org/2000/svg" xmlns:xlink="http://www.w3.org/1999/xlink" x="0px"
	 y="0px" viewBox="0 0 199.1 16.5" style="enable-background:new 0 0 199.1 16.5;" xml:space="preserve">
<g>
	<path d="M5.5,7.9C5.1,7,4.6,6.6,3.7,6.6c-1.3,0-2.1,1-2.1,2.6c0,1.5,0.8,2.5,2.1,2.5c0.7,0,1.2-0.3,1.5-0.7
		c0.1-0.2,0.2-0.3,0.3-0.6l1.1,0.3c-0.2,0.5-0.3,0.7-0.5,0.9c-0.5,0.7-1.4,1.1-2.4,1.1c-1.9,0-3.2-1.3-3.2-3.4
		c0-2.1,1.2-3.5,3.2-3.5c1,0,1.9,0.4,2.4,1.2c0.2,0.3,0.3,0.5,0.4,0.8L5.5,7.9z"/>
	<path d="M12.9,11.6c-0.5,0.4-0.7,0.5-1.1,0.7c-0.4,0.2-0.9,0.2-1.3,0.2c-1.3,0-2.2-0.7-2.2-1.9c0-0.9,0.6-1.6,1.6-2
		c0.7-0.2,1.4-0.3,2.9-0.3V7.7c0-0.8-0.5-1.2-1.5-1.2c-0.6,0-1.1,0.2-1.5,0.5C9.8,7.2,9.7,7.4,9.6,7.7L8.5,7.5
		c0.2-0.6,0.4-0.9,0.7-1.2c0.5-0.4,1.3-0.7,2.2-0.7c0.9,0,1.6,0.2,2,0.6c0.4,0.3,0.5,0.8,0.5,1.5v3.3c0,0.6,0,0.9,0.1,1.4h-1.1V11.6
		z M12.9,9.2c-1.4,0-2,0.1-2.6,0.3c-0.6,0.2-0.9,0.6-0.9,1.2c0,0.6,0.5,1,1.2,1c0.7,0,1.4-0.3,1.8-0.8c0.3-0.3,0.4-0.6,0.4-1V9.2z"
		/>
	<path d="M20.3,6.9c-0.4-0.1-0.7-0.2-1-0.2c-0.6,0-1.1,0.2-1.5,0.7c-0.3,0.4-0.4,0.7-0.5,1.2V11c0,0.6,0,0.9,0.1,1.4h-1.3
		c0.1-0.6,0.1-0.9,0.1-1.4V7.3c0-0.6,0-1-0.1-1.4h1.2v0.6c0,0,0,0,0,0.1c0,0,0,0,0,0.1c0,0.1,0,0.1,0,0.2c0.2-0.3,0.3-0.5,0.6-0.6
		c0.4-0.3,1-0.5,1.6-0.5c0.4,0,0.6,0,1.1,0.1L20.3,6.9z"/>
	<path d="M23,9.4c0,0.8,0.2,1.2,0.5,1.6c0.4,0.5,0.9,0.8,1.6,0.8c0.6,0,1.2-0.2,1.5-0.7c0.2-0.2,0.3-0.3,0.4-0.7l1,0.4
		c-0.2,0.5-0.4,0.7-0.7,1c-0.6,0.6-1.3,0.9-2.3,0.9c-1.9,0-3.2-1.3-3.2-3.5c0-2.1,1.2-3.5,3.1-3.5c1.6,0,2.8,1,3,2.7
		c0,0.1,0,0.4,0.1,1H23z M26.9,8.5c-0.1-0.6-0.3-1-0.6-1.4C26,6.7,25.5,6.6,25,6.6c-0.7,0-1.3,0.3-1.7,1C23.1,7.9,23.1,8,23,8.5
		H26.9z"/>
	<path d="M30.8,9.4c0,0.8,0.2,1.2,0.5,1.6c0.4,0.5,0.9,0.8,1.6,0.8c0.6,0,1.2-0.2,1.5-0.7c0.2-0.2,0.3-0.3,0.4-0.7l1,0.4
		c-0.2,0.5-0.4,0.7-0.7,1c-0.6,0.6-1.3,0.9-2.3,0.9c-1.9,0-3.2-1.3-3.2-3.5c0-2.1,1.2-3.5,3.1-3.5c1.6,0,2.8,1,3,2.7
		c0,0.1,0,0.4,0.1,1H30.8z M34.8,8.5c-0.1-0.6-0.3-1-0.6-1.4c-0.4-0.3-0.8-0.5-1.4-0.5c-0.7,0-1.3,0.3-1.7,1C31,7.9,30.9,8,30.8,8.5
		H34.8z"/>
	<path d="M41.9,6.9c-0.4-0.1-0.7-0.2-1-0.2c-0.6,0-1.1,0.2-1.5,0.7c-0.3,0.4-0.4,0.7-0.5,1.2V11c0,0.6,0,0.9,0.1,1.4h-1.3
		c0.1-0.6,0.1-0.9,0.1-1.4V7.3c0-0.6,0-1-0.1-1.4H39v0.6c0,0,0,0,0,0.1c0,0,0,0,0,0.1c0,0.1,0,0.1,0,0.2c0.2-0.3,0.3-0.5,0.6-0.6
		c0.4-0.3,1-0.5,1.6-0.5c0.4,0,0.6,0,1.1,0.1L41.9,6.9z"/>
	<path d="M43.3,8.3c0.3,0,0.6,0.1,1.1,0.1H46c0.5,0,0.8,0,1.1-0.1v1.2c-0.4,0-0.6-0.1-1.1-0.1h-1.5c-0.5,0-0.7,0-1.1,0.1V8.3z"/>
	<path d="M50.5,5.8c-0.1,0.4-0.1,0.8-0.1,1.4v5.7c0,0.8-0.1,1.3-0.5,1.6c-0.3,0.3-0.8,0.4-1.4,0.4c-0.9,0-1.4-0.3-2-1l1-0.6
		c0.3,0.5,0.6,0.6,1,0.6c0.3,0,0.5-0.1,0.6-0.3c0.1-0.2,0.1-0.4,0.1-0.9V7.3c0-0.6,0-1-0.1-1.4H50.5z M50.5,3.2v1.2h-1.3V3.2H50.5z"
		/>
	<path d="M52.8,14.9c0.1-0.5,0.1-0.9,0.1-1.4V7.3c0-0.6,0-1-0.1-1.4h1.1v0.6c0,0.1,0,0.2,0,0.5c0.6-0.8,1.4-1.2,2.4-1.2
		c1.9,0,3.1,1.3,3.1,3.4c0,2.1-1.2,3.4-3,3.4c-1,0-1.8-0.4-2.5-1.2c0,0.3,0,0.5,0,0.8v1.3c0,0.6,0,1,0.1,1.4H52.8z M58.3,9.1
		c0-1.6-0.7-2.5-2.1-2.5c-1.4,0-2.3,1-2.3,2.5c0,0.7,0.3,1.4,0.7,1.8c0.4,0.4,1,0.6,1.6,0.6C57.5,11.6,58.3,10.7,58.3,9.1z"/>
	<path d="M68.8,5c-0.1,0.3-0.2,0.6-0.3,1.1l-0.9,3.2c0,0.1,0,0.2,0,0.3c0,0.2,0.1,0.3,0.4,0.3c0.3,0,0.7-0.2,1-0.4
		C69.6,9,70,8.1,70,7.1c0-2-1.5-3.3-3.6-3.3C63.9,3.8,62,5.6,62,8c0,2.3,1.7,3.9,4.1,3.9c0.7,0,1.4-0.1,2-0.3
		c0.4-0.2,0.6-0.3,1.1-0.6l0.5,0.7c-0.6,0.4-0.9,0.5-1.5,0.7c-0.7,0.2-1.4,0.3-2.2,0.3c-2.9,0-4.9-1.9-4.9-4.7
		c0-2.9,2.2-4.9,5.2-4.9c2.7,0,4.5,1.6,4.5,4c0,1.4-0.6,2.6-1.7,3.3c-0.4,0.3-1,0.4-1.4,0.4c-0.6,0-0.9-0.3-0.9-0.8c0,0,0-0.1,0-0.1
		c-0.2,0.3-0.4,0.4-0.6,0.6c-0.3,0.2-0.7,0.3-1,0.3c-1,0-1.7-0.8-1.7-2c0-0.9,0.3-1.8,0.8-2.5c0.6-0.8,1.4-1.3,2.2-1.3
		c0.7,0,1.1,0.3,1.2,0.8L67.9,5H68.8z M65,6.5c-0.4,0.6-0.6,1.5-0.6,2.2c0,0.8,0.3,1.2,0.9,1.2c0.5,0,1.1-0.4,1.5-1.1
		c0.3-0.6,0.6-1.5,0.6-2.2s-0.3-1-0.8-1C65.9,5.6,65.4,5.9,65,6.5z"/>
	<path d="M77.3,11.6c-0.5,0.4-0.7,0.5-1.1,0.7c-0.4,0.2-0.9,0.2-1.3,0.2c-1.3,0-2.2-0.7-2.2-1.9c0-0.9,0.6-1.6,1.6-2
		c0.7-0.2,1.4-0.3,2.9-0.3V7.7c0-0.8-0.5-1.2-1.5-1.2c-0.6,0-1.1,0.2-1.5,0.5c-0.2,0.2-0.2,0.3-0.3,0.6l-1.1-0.2
		c0.2-0.6,0.4-0.9,0.7-1.2c0.5-0.4,1.3-0.7,2.2-0.7c0.9,0,1.6,0.2,2,0.6c0.4,0.3,0.5,0.8,0.5,1.5v3.3c0,0.6,0,0.9,0.1,1.4h-1.1V11.6
		z M77.3,9.2c-1.4,0-2,0.1-2.6,0.3c-0.6,0.2-0.9,0.6-0.9,1.2c0,0.6,0.5,1,1.2,1c0.7,0,1.4-0.3,1.8-0.8c0.3-0.3,0.4-0.6,0.4-1V9.2z"
		/>
	<path d="M82,3.2v1.2h-1.3V3.2H82z M81.9,5.8c-0.1,0.4-0.1,0.8-0.1,1.4V11c0,0.6,0,0.9,0.1,1.4h-1.3c0.1-0.5,0.1-0.9,0.1-1.4V7.3
		c0-0.6,0-1-0.1-1.4H81.9z"/>
	<path d="M84.2,12.4c0.1-0.5,0.1-0.8,0.1-1.4V7.3c0-0.7,0-1-0.1-1.4h1.2v0.6c0,0,0,0.2,0,0.3c0,0.1,0,0.1,0,0.2
		c0.4-0.8,1.2-1.2,2.2-1.2c0.7,0,1.2,0.2,1.6,0.6c0.2,0.2,0.3,0.3,0.4,0.7c0.6-0.9,1.2-1.2,2.3-1.2c0.8,0,1.4,0.2,1.8,0.7
		c0.3,0.4,0.5,0.9,0.5,1.6v3c0,0.6,0,1,0.1,1.4h-1.3c0.1-0.5,0.1-0.8,0.1-1.4V8.2c0-0.7-0.1-1.1-0.5-1.4c-0.2-0.1-0.5-0.2-0.8-0.2
		c-0.6,0-1.1,0.3-1.5,0.8c-0.2,0.3-0.4,0.9-0.4,1.2V11c0,0.6,0,1,0.1,1.4h-1.3c0.1-0.4,0.1-0.8,0.1-1.4V8.2c0-1-0.4-1.6-1.3-1.6
		c-0.5,0-1.1,0.3-1.5,0.9c-0.2,0.3-0.4,0.9-0.4,1.1V11c0,0.6,0,0.9,0.1,1.4H84.2z"/>
	<path d="M96.2,12.4c0.1-0.5,0.1-0.8,0.1-1.4V7.3c0-0.6,0-0.9-0.1-1.4h1.2v0.7c0,0.2,0,0.2,0,0.5c0.6-0.9,1.4-1.3,2.4-1.3
		c0.9,0,1.6,0.3,2,0.9c0.2,0.4,0.4,0.8,0.4,1.5v3c0,0.6,0,1,0.1,1.4H101c0.1-0.5,0.1-0.9,0.1-1.4V8.3c0-1.1-0.5-1.6-1.4-1.6
		c-0.6,0-1.1,0.3-1.6,0.9c-0.3,0.4-0.5,0.7-0.6,1.2V11c0,0.5,0,0.9,0.1,1.4H96.2z"/>
	<path d="M105.2,9.4c0,0.8,0.2,1.2,0.5,1.6c0.4,0.5,0.9,0.8,1.6,0.8c0.6,0,1.2-0.2,1.5-0.7c0.2-0.2,0.3-0.3,0.4-0.7l1,0.4
		c-0.2,0.5-0.4,0.7-0.7,1c-0.6,0.6-1.3,0.9-2.3,0.9c-1.9,0-3.2-1.3-3.2-3.5c0-2.1,1.2-3.5,3.1-3.5c1.6,0,2.8,1,3,2.7
		c0,0.1,0,0.4,0.1,1H105.2z M109.2,8.5c-0.1-0.6-0.3-1-0.6-1.4c-0.4-0.3-0.8-0.5-1.4-0.5c-0.7,0-1.3,0.3-1.7,1
		c-0.2,0.3-0.2,0.5-0.3,0.9H109.2z"/>
	<path d="M116.6,12.4c-0.2-0.4-0.3-0.5-0.6-0.9l-1.2-1.8l-1.3,1.8c-0.2,0.3-0.3,0.4-0.5,0.8h-1.4c0.2-0.3,0.6-0.8,0.8-1.1l1.7-2.4
		l-1.6-2.2c-0.1-0.1-0.3-0.3-0.7-1h1.4c0.1,0.3,0.3,0.5,0.5,0.8l1.1,1.6l1.1-1.6c0.2-0.3,0.4-0.6,0.5-0.8h1.4
		c-0.1,0.1-0.1,0.1-0.3,0.4c-0.1,0.1-0.3,0.5-0.5,0.6L115.5,9l1.6,2.3c0.1,0.2,0.4,0.6,0.9,1.2H116.6z"/>
	<path d="M121.6,4.1c0,0.4-0.1,0.9-0.1,1.4v0.4h0.6c0.6,0,0.8,0,1.2-0.1v1.1c-0.4-0.1-0.7-0.1-1.2-0.1h-0.6v4c0,0.3,0,0.5,0.2,0.6
		c0.1,0.1,0.3,0.2,0.6,0.2c0.3,0,0.6-0.1,0.9-0.3l0.3,1c-0.5,0.2-0.9,0.3-1.4,0.3c-0.6,0-1-0.1-1.3-0.4c-0.3-0.3-0.4-0.6-0.4-1.2
		V6.8H120c-0.4,0-0.7,0-1.1,0.1V5.8c0.3,0.1,0.6,0.1,1.1,0.1h0.5V5.4c0-0.5,0-1-0.1-1.4H121.6z"/>
	<path d="M126.4,11.1v1.4H125v-1.4H126.4z"/>
	<path d="M133.3,7.9c-0.3-0.9-0.9-1.3-1.7-1.3c-1.3,0-2.1,1-2.1,2.6c0,1.5,0.8,2.5,2.1,2.5c0.7,0,1.2-0.3,1.5-0.7
		c0.1-0.2,0.2-0.3,0.3-0.6l1.1,0.3c-0.2,0.5-0.3,0.7-0.5,0.9c-0.5,0.7-1.4,1.1-2.4,1.1c-1.9,0-3.2-1.3-3.2-3.4
		c0-2.1,1.2-3.5,3.2-3.5c1,0,1.9,0.4,2.4,1.2c0.2,0.3,0.3,0.5,0.4,0.8L133.3,7.9z"/>
	<path d="M136,9.1c0-2.1,1.3-3.5,3.3-3.5c2,0,3.3,1.3,3.3,3.5s-1.3,3.5-3.3,3.5C137.3,12.6,136,11.3,136,9.1z M137.1,9.1
		c0,1.6,0.8,2.6,2.2,2.6c1.4,0,2.2-1,2.2-2.5c0-1.6-0.8-2.6-2.2-2.6C138,6.6,137.1,7.6,137.1,9.1z"/>
	<path d="M144.6,12.4c0.1-0.5,0.1-0.8,0.1-1.4V7.3c0-0.7,0-1-0.1-1.4h1.2v0.6c0,0,0,0.2,0,0.3c0,0.1,0,0.1,0,0.2
		c0.4-0.8,1.2-1.2,2.2-1.2c0.7,0,1.2,0.2,1.6,0.6c0.2,0.2,0.3,0.3,0.4,0.7c0.6-0.9,1.2-1.2,2.3-1.2c0.8,0,1.4,0.2,1.8,0.7
		c0.3,0.4,0.5,0.9,0.5,1.6v3c0,0.6,0,1,0.1,1.4h-1.3c0.1-0.5,0.1-0.8,0.1-1.4V8.2c0-0.7-0.1-1.1-0.5-1.4c-0.2-0.1-0.5-0.2-0.8-0.2
		c-0.6,0-1.1,0.3-1.5,0.8c-0.2,0.3-0.4,0.9-0.4,1.2V11c0,0.6,0,1,0.1,1.4h-1.3c0.1-0.4,0.1-0.8,0.1-1.4V8.2c0-1-0.4-1.6-1.3-1.6
		c-0.5,0-1.1,0.3-1.5,0.9c-0.2,0.3-0.4,0.9-0.4,1.1V11c0,0.6,0,0.9,0.1,1.4H144.6z"/>
</g>
</svg>
