<?xml version="1.0" encoding="utf-8"?>
<!-- Generator: Adobe Illustrator 21.0.0, SVG Export Plug-In . SVG Version: 6.00 Build 0)  -->
<svg version="1.1" id="レイヤー_1" xmlns="http://www.w3.org/2000/svg" xmlns:xlink="http://www.w3.org/1999/xlink" x="0px"
	 y="0px" viewBox="0 0 199.1 16.5" style="enable-background:new 0 0 199.1 16.5;" xml:space="preserve">
<g>
	<path d="M4.9,6.9c-0.4-0.1-0.7-0.2-1-0.2C3.3,6.8,2.8,7,2.5,7.4C2.2,7.8,2.1,8.1,2,8.7V11c0,0.6,0,0.9,0.1,1.4H0.8
		c0.1-0.6,0.1-0.9,0.1-1.4V7.3c0-0.6,0-1-0.1-1.4H2v0.6c0,0,0,0,0,0.1c0,0,0,0,0,0.1c0,0.1,0,0.1,0,0.2c0.2-0.3,0.3-0.5,0.6-0.6
		c0.4-0.3,1-0.5,1.6-0.5c0.4,0,0.6,0,1.1,0.1L4.9,6.9z"/>
	<path d="M7.6,9.4c0,0.8,0.2,1.2,0.5,1.6c0.4,0.5,0.9,0.8,1.6,0.8c0.6,0,1.2-0.2,1.5-0.7c0.2-0.2,0.3-0.3,0.4-0.7l1,0.4
		c-0.2,0.5-0.4,0.7-0.7,1c-0.6,0.6-1.3,0.9-2.3,0.9c-1.9,0-3.2-1.3-3.2-3.5c0-2.1,1.2-3.5,3.1-3.5c1.6,0,2.8,1,3,2.7
		c0,0.1,0,0.4,0.1,1H7.6z M11.5,8.5c-0.1-0.6-0.3-1-0.6-1.4c-0.4-0.3-0.8-0.5-1.4-0.5c-0.7,0-1.3,0.3-1.7,1C7.7,7.9,7.7,8,7.6,8.5
		H11.5z"/>
	<path d="M19.2,7.9c-0.3-0.9-0.9-1.3-1.7-1.3c-1.3,0-2.1,1-2.1,2.6c0,1.5,0.8,2.5,2.1,2.5c0.7,0,1.2-0.3,1.5-0.7
		c0.1-0.2,0.2-0.3,0.3-0.6l1.1,0.3c-0.2,0.5-0.3,0.7-0.5,0.9c-0.5,0.7-1.4,1.1-2.4,1.1c-1.9,0-3.2-1.3-3.2-3.4
		c0-2.1,1.2-3.5,3.2-3.5c1,0,1.9,0.4,2.4,1.2c0.2,0.3,0.3,0.5,0.4,0.8L19.2,7.9z"/>
	<path d="M26.4,6.9c-0.4-0.1-0.7-0.2-1-0.2c-0.6,0-1.1,0.2-1.5,0.7c-0.3,0.4-0.4,0.7-0.5,1.2V11c0,0.6,0,0.9,0.1,1.4h-1.3
		c0.1-0.6,0.1-0.9,0.1-1.4V7.3c0-0.6,0-1-0.1-1.4h1.2v0.6c0,0,0,0,0,0.1c0,0,0,0,0,0.1c0,0.1,0,0.1,0,0.2c0.2-0.3,0.3-0.5,0.6-0.6
		c0.4-0.3,1-0.5,1.6-0.5c0.4,0,0.6,0,1.1,0.1L26.4,6.9z"/>
	<path d="M34.2,5.8c-0.1,0.5-0.1,0.8-0.1,1.4V11c0,0.6,0,0.9,0.1,1.4H33v-0.7c0-0.2,0-0.2,0-0.5c-0.6,0.9-1.4,1.3-2.4,1.3
		c-0.9,0-1.6-0.3-2-0.9c-0.2-0.4-0.4-0.8-0.4-1.5v-3c0-0.6,0-1-0.1-1.4h1.3c-0.1,0.5-0.1,0.9-0.1,1.4V10c0,1.1,0.5,1.6,1.4,1.6
		c0.6,0,1.1-0.3,1.6-0.9c0.3-0.4,0.5-0.7,0.6-1.2V7.3c0-0.5,0-0.9-0.1-1.4H34.2z"/>
	<path d="M37.8,3.2v1.2h-1.3V3.2H37.8z M37.8,5.8c-0.1,0.4-0.1,0.8-0.1,1.4V11c0,0.6,0,0.9,0.1,1.4h-1.3c0.1-0.5,0.1-0.9,0.1-1.4
		V7.3c0-0.6,0-1-0.1-1.4H37.8z"/>
	<path d="M42.1,4.1C42,4.4,42,4.9,42,5.4v0.4h0.6c0.6,0,0.8,0,1.2-0.1v1.1c-0.4-0.1-0.7-0.1-1.2-0.1H42v4c0,0.3,0,0.5,0.2,0.6
		c0.1,0.1,0.3,0.2,0.6,0.2c0.3,0,0.6-0.1,0.9-0.3l0.3,1c-0.5,0.2-0.9,0.3-1.4,0.3c-0.6,0-1-0.1-1.3-0.4c-0.3-0.3-0.4-0.6-0.4-1.2
		V6.8h-0.5c-0.4,0-0.7,0-1.1,0.1V5.8c0.3,0.1,0.6,0.1,1.1,0.1h0.5V5.4c0-0.5,0-1-0.1-1.4H42.1z"/>
	<path d="M45,8.3c0.3,0,0.6,0.1,1.1,0.1h1.5c0.5,0,0.8,0,1.1-0.1v1.2c-0.4,0-0.6-0.1-1.1-0.1h-1.5c-0.5,0-0.7,0-1.1,0.1V8.3z"/>
	<path d="M52.2,5.8c-0.1,0.4-0.1,0.8-0.1,1.4v5.7c0,0.8-0.1,1.3-0.5,1.6c-0.3,0.3-0.8,0.4-1.4,0.4c-0.9,0-1.4-0.3-2-1l1-0.6
		c0.3,0.5,0.6,0.6,1,0.6c0.3,0,0.5-0.1,0.6-0.3c0.1-0.2,0.1-0.4,0.1-0.9V7.3c0-0.6,0-1-0.1-1.4H52.2z M52.2,3.2v1.2h-1.3V3.2H52.2z"
		/>
	<path d="M54.5,14.9c0.1-0.5,0.1-0.9,0.1-1.4V7.3c0-0.6,0-1-0.1-1.4h1.1v0.6c0,0.1,0,0.2,0,0.5c0.6-0.8,1.4-1.2,2.4-1.2
		c1.9,0,3.1,1.3,3.1,3.4c0,2.1-1.2,3.4-3,3.4c-1,0-1.8-0.4-2.5-1.2c0,0.3,0,0.5,0,0.8v1.3c0,0.6,0,1,0.1,1.4H54.5z M60,9.1
		c0-1.6-0.7-2.5-2.1-2.5c-1.4,0-2.3,1-2.3,2.5c0,0.7,0.3,1.4,0.7,1.8c0.4,0.4,1,0.6,1.6,0.6C59.2,11.6,60,10.7,60,9.1z"/>
	<path d="M70.5,5c-0.1,0.3-0.2,0.6-0.3,1.1l-0.9,3.2c0,0.1,0,0.2,0,0.3c0,0.2,0.1,0.3,0.4,0.3c0.3,0,0.7-0.2,1-0.4
		c0.7-0.6,1.2-1.5,1.2-2.5c0-2-1.5-3.3-3.6-3.3c-2.5,0-4.4,1.8-4.4,4.2c0,2.3,1.7,3.9,4.1,3.9c0.7,0,1.4-0.1,2-0.3
		c0.4-0.2,0.6-0.3,1.1-0.6l0.5,0.7c-0.6,0.4-0.9,0.5-1.5,0.7c-0.7,0.2-1.4,0.3-2.2,0.3c-2.9,0-4.9-1.9-4.9-4.7
		c0-2.9,2.2-4.9,5.2-4.9c2.7,0,4.5,1.6,4.5,4c0,1.4-0.6,2.6-1.7,3.3c-0.4,0.3-1,0.4-1.4,0.4c-0.6,0-0.9-0.3-0.9-0.8c0,0,0-0.1,0-0.1
		c-0.2,0.3-0.4,0.4-0.6,0.6c-0.3,0.2-0.7,0.3-1,0.3c-1,0-1.7-0.8-1.7-2c0-0.9,0.3-1.8,0.8-2.5c0.6-0.8,1.4-1.3,2.2-1.3
		c0.7,0,1.1,0.3,1.2,0.8L69.6,5H70.5z M66.8,6.5c-0.4,0.6-0.6,1.5-0.6,2.2c0,0.8,0.3,1.2,0.9,1.2c0.5,0,1.1-0.4,1.5-1.1
		C68.8,8.2,69,7.3,69,6.6s-0.3-1-0.8-1C67.6,5.6,67.1,5.9,66.8,6.5z"/>
	<path d="M79,11.6c-0.5,0.4-0.7,0.5-1.1,0.7c-0.4,0.2-0.9,0.2-1.3,0.2c-1.3,0-2.2-0.7-2.2-1.9c0-0.9,0.6-1.6,1.6-2
		c0.7-0.2,1.4-0.3,2.9-0.3V7.7c0-0.8-0.5-1.2-1.5-1.2c-0.6,0-1.1,0.2-1.5,0.5c-0.2,0.2-0.2,0.3-0.3,0.6l-1.1-0.2
		c0.2-0.6,0.4-0.9,0.7-1.2c0.5-0.4,1.3-0.7,2.2-0.7c0.9,0,1.6,0.2,2,0.6C79.9,6.6,80,7.1,80,7.7v3.3c0,0.6,0,0.9,0.1,1.4H79V11.6z
		 M79,9.2c-1.4,0-2,0.1-2.6,0.3c-0.6,0.2-0.9,0.6-0.9,1.2c0,0.6,0.5,1,1.2,1c0.7,0,1.4-0.3,1.8-0.8c0.3-0.3,0.4-0.6,0.4-1V9.2z"/>
	<path d="M83.7,3.2v1.2h-1.3V3.2H83.7z M83.6,5.8c-0.1,0.4-0.1,0.8-0.1,1.4V11c0,0.6,0,0.9,0.1,1.4h-1.3c0.1-0.5,0.1-0.9,0.1-1.4
		V7.3c0-0.6,0-1-0.1-1.4H83.6z"/>
	<path d="M85.9,12.4C86,12,86,11.6,86,11V7.3c0-0.7,0-1-0.1-1.4h1.2v0.6c0,0,0,0.2,0,0.3c0,0.1,0,0.1,0,0.2c0.4-0.8,1.2-1.2,2.2-1.2
		c0.7,0,1.2,0.2,1.6,0.6C91,6.5,91,6.6,91.1,7c0.6-0.9,1.2-1.2,2.3-1.2c0.8,0,1.4,0.2,1.8,0.7c0.3,0.4,0.5,0.9,0.5,1.6v3
		c0,0.6,0,1,0.1,1.4h-1.3c0.1-0.5,0.1-0.8,0.1-1.4V8.2c0-0.7-0.1-1.1-0.5-1.4c-0.2-0.1-0.5-0.2-0.8-0.2c-0.6,0-1.1,0.3-1.5,0.8
		c-0.2,0.3-0.4,0.9-0.4,1.2V11c0,0.6,0,1,0.1,1.4h-1.3c0.1-0.4,0.1-0.8,0.1-1.4V8.2c0-1-0.4-1.6-1.3-1.6c-0.5,0-1.1,0.3-1.5,0.9
		c-0.2,0.3-0.4,0.9-0.4,1.1V11c0,0.6,0,0.9,0.1,1.4H85.9z"/>
	<path d="M98,12.4c0.1-0.5,0.1-0.8,0.1-1.4V7.3c0-0.6,0-0.9-0.1-1.4h1.2v0.7c0,0.2,0,0.2,0,0.5c0.6-0.9,1.4-1.3,2.4-1.3
		c0.9,0,1.6,0.3,2,0.9c0.2,0.4,0.4,0.8,0.4,1.5v3c0,0.6,0,1,0.1,1.4h-1.3c0.1-0.5,0.1-0.9,0.1-1.4V8.3c0-1.1-0.5-1.6-1.4-1.6
		c-0.6,0-1.1,0.3-1.6,0.9c-0.3,0.4-0.5,0.7-0.6,1.2V11c0,0.5,0,0.9,0.1,1.4H98z"/>
	<path d="M107,9.4c0,0.8,0.2,1.2,0.5,1.6c0.4,0.5,0.9,0.8,1.6,0.8c0.6,0,1.2-0.2,1.5-0.7c0.2-0.2,0.3-0.3,0.4-0.7l1,0.4
		c-0.2,0.5-0.4,0.7-0.7,1c-0.6,0.6-1.3,0.9-2.3,0.9c-1.9,0-3.2-1.3-3.2-3.5c0-2.1,1.2-3.5,3.1-3.5c1.6,0,2.8,1,3,2.7
		c0,0.1,0,0.4,0.1,1H107z M110.9,8.5c-0.1-0.6-0.3-1-0.6-1.4c-0.4-0.3-0.8-0.5-1.4-0.5c-0.7,0-1.3,0.3-1.7,1
		c-0.2,0.3-0.2,0.5-0.3,0.9H110.9z"/>
	<path d="M118.3,12.4c-0.2-0.4-0.3-0.5-0.6-0.9l-1.2-1.8l-1.3,1.8c-0.2,0.3-0.3,0.4-0.5,0.8h-1.4c0.2-0.3,0.6-0.8,0.8-1.1l1.7-2.4
		l-1.6-2.2c-0.1-0.1-0.3-0.3-0.7-1h1.4c0.1,0.3,0.3,0.5,0.5,0.8l1.1,1.6l1.1-1.6c0.2-0.3,0.4-0.6,0.5-0.8h1.4
		c-0.1,0.1-0.1,0.1-0.3,0.4c-0.1,0.1-0.3,0.5-0.5,0.6L117.2,9l1.6,2.3c0.1,0.2,0.4,0.6,0.9,1.2H118.3z"/>
	<path d="M123.3,4.1c0,0.4-0.1,0.9-0.1,1.4v0.4h0.6c0.6,0,0.8,0,1.2-0.1v1.1c-0.4-0.1-0.7-0.1-1.2-0.1h-0.6v4c0,0.3,0,0.5,0.2,0.6
		c0.1,0.1,0.3,0.2,0.6,0.2c0.3,0,0.6-0.1,0.9-0.3l0.3,1c-0.5,0.2-0.9,0.3-1.4,0.3c-0.6,0-1-0.1-1.3-0.4c-0.3-0.3-0.4-0.6-0.4-1.2
		V6.8h-0.5c-0.4,0-0.7,0-1.1,0.1V5.8c0.3,0.1,0.6,0.1,1.1,0.1h0.5V5.4c0-0.5,0-1-0.1-1.4H123.3z"/>
	<path d="M128.1,11.1v1.4h-1.4v-1.4H128.1z"/>
	<path d="M135,7.9c-0.3-0.9-0.9-1.3-1.7-1.3c-1.3,0-2.1,1-2.1,2.6c0,1.5,0.8,2.5,2.1,2.5c0.7,0,1.2-0.3,1.5-0.7
		c0.1-0.2,0.2-0.3,0.3-0.6l1.1,0.3c-0.2,0.5-0.3,0.7-0.5,0.9c-0.5,0.7-1.4,1.1-2.4,1.1c-1.9,0-3.2-1.3-3.2-3.4
		c0-2.1,1.2-3.5,3.2-3.5c1,0,1.9,0.4,2.4,1.2c0.2,0.3,0.3,0.5,0.4,0.8L135,7.9z"/>
	<path d="M137.8,9.1c0-2.1,1.3-3.5,3.3-3.5c2,0,3.3,1.3,3.3,3.5s-1.3,3.5-3.3,3.5C139,12.6,137.8,11.3,137.8,9.1z M138.9,9.1
		c0,1.6,0.8,2.6,2.2,2.6c1.4,0,2.2-1,2.2-2.5c0-1.6-0.8-2.6-2.2-2.6C139.7,6.6,138.9,7.6,138.9,9.1z"/>
	<path d="M146.3,12.4c0.1-0.5,0.1-0.8,0.1-1.4V7.3c0-0.7,0-1-0.1-1.4h1.2v0.6c0,0,0,0.2,0,0.3c0,0.1,0,0.1,0,0.2
		c0.4-0.8,1.2-1.2,2.2-1.2c0.7,0,1.2,0.2,1.6,0.6c0.2,0.2,0.3,0.3,0.4,0.7c0.6-0.9,1.2-1.2,2.3-1.2c0.8,0,1.4,0.2,1.8,0.7
		c0.3,0.4,0.5,0.9,0.5,1.6v3c0,0.6,0,1,0.1,1.4h-1.3c0.1-0.5,0.1-0.8,0.1-1.4V8.2c0-0.7-0.1-1.1-0.5-1.4c-0.2-0.1-0.5-0.2-0.8-0.2
		c-0.6,0-1.1,0.3-1.5,0.8c-0.2,0.3-0.4,0.9-0.4,1.2V11c0,0.6,0,1,0.1,1.4h-1.3c0.1-0.4,0.1-0.8,0.1-1.4V8.2c0-1-0.4-1.6-1.3-1.6
		c-0.5,0-1.1,0.3-1.5,0.9c-0.2,0.3-0.4,0.9-0.4,1.1V11c0,0.6,0,0.9,0.1,1.4H146.3z"/>
</g>
</svg>
